<svg xmlns="http://www.w3.org/2000/svg" width="38.358" height="4" viewBox="0 0 38.358 4"><defs><style>.a{fill:#fff;}.b{fill:#f5f6f6;}</style></defs><g transform="translate(-137 -375)"><circle class="a" cx="1.5" cy="1.5" r="1.5" transform="translate(149 376)"/><circle class="a" cx="1.5" cy="1.5" r="1.5" transform="translate(155 376)"/><circle class="a" cx="1.5" cy="1.5" r="1.5" transform="translate(161 376)"/><path class="b" d="M9.033.02C9.015,0,9,0,8.961.02a2.114,2.114,0,0,1-.577.162,1.064,1.064,0,0,1-.252.036L7.753.273a2.922,2.922,0,0,1-.4.018c-.234,0-.469,0-.7-.018-.144,0-.289-.018-.433-.018C6.075.237,5.931.237,5.787.219L5.264.164C5.029.128,4.813.092,4.6.056,4.4.02,4.2,0,4-.016a.74.74,0,0,1-.2-.018,2.717,2.717,0,0,0-.541.018,3.694,3.694,0,0,0-.433.09A2.863,2.863,0,0,0,2.468.2a2.663,2.663,0,0,0-.577.379,1.942,1.942,0,0,0-.325.433l-.216.379A1.115,1.115,0,0,1,.9,1.752,1.37,1.37,0,0,1,.43,1.86c-.108.018-.234,0-.343.018C0,1.9-.039,1.932-.02,2c.018.054.036.09.054.144a.511.511,0,0,1,.072.234.066.066,0,0,0,.018.054.08.08,0,0,0,.108.036L.34,2.419a1.586,1.586,0,0,1,.18-.108,1.28,1.28,0,0,1,.523-.09,3.593,3.593,0,0,1,.757.072l.325.054a5.286,5.286,0,0,1,.523.09,5.286,5.286,0,0,0,.523.09c.18.036.379.054.559.09a3.5,3.5,0,0,0,.613.036h.018c.234-.018.469-.018.685-.054.18-.036.361-.072.541-.126.126-.036.234-.072.361-.108a4.941,4.941,0,0,0,.721-.271,4.762,4.762,0,0,0,.685-.325,3.189,3.189,0,0,0,.433-.307c.108-.09.216-.2.325-.307A3.36,3.36,0,0,0,8.528.687a4.152,4.152,0,0,1,.5-.613Q9.06.074,9.033.02Z" transform="translate(166.394 375.044) rotate(8)"/><path class="b" d="M9.058,2.633c-.018.018-.036.018-.072,0a2.114,2.114,0,0,0-.577-.162,1.064,1.064,0,0,0-.252-.036l-.379-.054a2.922,2.922,0,0,0-.4-.018c-.234,0-.469,0-.7.018-.144,0-.289.018-.433.018-.144.018-.289.018-.433.036l-.523.054c-.234.036-.451.072-.667.108-.2.036-.4.054-.6.072a.74.74,0,0,0-.2.018,2.717,2.717,0,0,1-.541-.018,3.694,3.694,0,0,1-.433-.09,2.863,2.863,0,0,1-.361-.126,2.663,2.663,0,0,1-.577-.379,1.942,1.942,0,0,1-.325-.433l-.216-.379A1.115,1.115,0,0,0,.924.9,1.37,1.37,0,0,0,.455.794C.347.776.221.794.113.776.023.757-.014.721,0,.649.023.6.041.559.059.5A.511.511,0,0,0,.131.271.066.066,0,0,1,.149.216.08.08,0,0,1,.257.18L.365.234a1.586,1.586,0,0,0,.18.108,1.28,1.28,0,0,0,.523.09A3.593,3.593,0,0,0,1.826.361L2.151.307a5.286,5.286,0,0,0,.523-.09A5.286,5.286,0,0,1,3.2.126c.18-.036.379-.054.559-.09A3.5,3.5,0,0,1,4.369,0h.018c.234.018.469.018.685.054.18.036.361.072.541.126.126.036.234.072.361.108A4.941,4.941,0,0,1,6.7.559a4.762,4.762,0,0,1,.685.325,3.189,3.189,0,0,1,.433.307c.108.09.216.2.325.307a3.36,3.36,0,0,1,.415.469,4.152,4.152,0,0,0,.5.613Q9.085,2.579,9.058,2.633Z" transform="translate(146.358 377.668) rotate(172)"/></g></svg>