<svg xmlns="http://www.w3.org/2000/svg" viewBox="0 0 238.04 35.05"><defs><style>.a{isolation:isolate;}.b{fill:#294c46;}</style></defs><title>logo-icon</title><g class="a"><path class="b" d="M18.08,35.05a4.42,4.42,0,0,1-2.78-.81,5.35,5.35,0,0,1-1.6-2.14,11.21,11.21,0,0,1-.75-3c-.13-1.13-.21-2.29-.25-3.47s-.06-2.33-.08-3.45a16.92,16.92,0,0,0-.25-2.95,5,5,0,0,0-.75-2,1.6,1.6,0,0,0-1.6-.64l-.79,1.51c-.34.66-.75,1.42-1.21,2.27S7.07,22.07,6.57,23s-1,1.85-1.44,2.7S4.25,27.33,3.87,28l-.82,1.52a7.61,7.61,0,0,0-.43.83,1.94,1.94,0,0,1-.25.46A.55.55,0,0,1,2,31a4.49,4.49,0,0,1-.63,0,1.7,1.7,0,0,1-1.08-.26,1.25,1.25,0,0,1-.31-1,32.8,32.8,0,0,1,1.75-4.91C2.49,23.26,3.3,21.64,4.2,20s1.85-3.2,2.85-4.78,2-3.14,3-4.68l2.16-3.22a27.64,27.64,0,0,1,2.76-3.47,16.52,16.52,0,0,1,3.31-2.76A7.19,7.19,0,0,1,22.09,0a3.13,3.13,0,0,1,1.37.21A2.57,2.57,0,0,1,24.52,1a3.15,3.15,0,0,1,.61,1.16,2.94,2.94,0,0,1,0,1.42,8.68,8.68,0,0,1-.79,3.64,15.68,15.68,0,0,1-2,3.26,22.37,22.37,0,0,1-2.57,2.74c-.91.82-1.76,1.53-2.56,2.12s-1.46,1.06-2,1.41a5.12,5.12,0,0,0-.79.56c0,.3,0,.89,0,1.75s.05,1.84.12,2.95.16,2.27.29,3.49.3,2.36.52,3.43a12.21,12.21,0,0,0,.85,2.71A2.42,2.42,0,0,0,17.54,33a4,4,0,0,0,.54.12l.94.17c.35.07.67.12,1,.16a4.23,4.23,0,0,1,.56.09,1.61,1.61,0,0,1,.27.23,2.36,2.36,0,0,1,.23.27,4.3,4.3,0,0,1-1.47.85A6,6,0,0,1,18.08,35.05Zm-6.59-21.9a1.58,1.58,0,0,0,.19.87,1,1,0,0,0,.54.4,3,3,0,0,0,.79.14l.94,0A5.33,5.33,0,0,0,17,13.48a13.17,13.17,0,0,0,2.79-2.7,15.21,15.21,0,0,0,2-3.41,8.45,8.45,0,0,0,.77-3.2V3.4a3.24,3.24,0,0,0-.08-.72.93.93,0,0,0-.31-.52A1.18,1.18,0,0,0,21.51,2a4.13,4.13,0,0,0-2,.6,13.12,13.12,0,0,0-2.19,1.56,21.35,21.35,0,0,0-2.18,2.18A20.84,20.84,0,0,0,13.3,8.78,16,16,0,0,0,12,11.18,5.07,5.07,0,0,0,11.49,13.15Z"/><path class="b" d="M22.74,29a6.16,6.16,0,0,1-.57-2.88,7.56,7.56,0,0,1,.63-2.66,8.67,8.67,0,0,1,1.47-2.27,11.91,11.91,0,0,1,1.94-1.77,8.69,8.69,0,0,1,2.1-1.14,4.54,4.54,0,0,1,1.87-.33,1.79,1.79,0,0,1,1.28.6,2.06,2.06,0,0,1,.3,1.66,3.94,3.94,0,0,1-.94,2.62,14,14,0,0,1-2.08,2c-.76.59-1.45,1.13-2.08,1.6s-.95.92-.95,1.33a.6.6,0,0,0,.41.54,3.46,3.46,0,0,0,.94.29c.36.06.72.11,1.08.14s.62,0,.77.07a52.45,52.45,0,0,1,5.44-.94,5.76,5.76,0,0,1,2.27,0c.31.14.25.36-.17.65a8.93,8.93,0,0,1-2,.93,23.12,23.12,0,0,1-3,.86,18.65,18.65,0,0,1-3.44.45,10.6,10.6,0,0,1-3.14-.33A3.57,3.57,0,0,1,22.74,29Zm6.75-8.79a2.83,2.83,0,0,0-1.47.42,5.46,5.46,0,0,0-1.25,1.06A6.53,6.53,0,0,0,25.83,23a8.19,8.19,0,0,0-.58,1.4.24.24,0,0,0,.12,0h.11A2.27,2.27,0,0,0,26.71,24,7,7,0,0,0,28,22.88a8,8,0,0,0,1.05-1.4A2.72,2.72,0,0,0,29.49,20.17Z"/><path class="b" d="M45.1,17a4.18,4.18,0,0,0-2,1.09,15.6,15.6,0,0,0-2.22,2.39,16.27,16.27,0,0,0-1.79,3.05,7.43,7.43,0,0,0-.73,3,1.85,1.85,0,0,0,.58,1.56,2.68,2.68,0,0,0,1.65.44,9,9,0,0,0,2.26-.29c.73-.19,1.46-.4,2.2-.62s1.46-.42,2.19-.61a8.6,8.6,0,0,1,2.26-.29,2.16,2.16,0,0,1-.16.9,3.48,3.48,0,0,1-.46.79c-1.34.65-2.71,1.23-4.12,1.76a12.55,12.55,0,0,1-4.44.79,4.62,4.62,0,0,1-1.46-.25A5.34,5.34,0,0,1,37.39,30a4.46,4.46,0,0,1-1.1-1.11,2.62,2.62,0,0,1-.44-1.47,11.6,11.6,0,0,1,.5-3.37A13.93,13.93,0,0,1,37.74,21a13.45,13.45,0,0,1,2.14-2.7,15.65,15.65,0,0,1,2.72-2.16v0a10.28,10.28,0,0,1,1.33-.67,4.57,4.57,0,0,1,1.4-.39,1.42,1.42,0,0,1,1.1.31,1.69,1.69,0,0,1,.45,1.37c0,.31,0,.71-.08,1.21A1.54,1.54,0,0,1,46.37,19a3.11,3.11,0,0,1-.81.35,2.37,2.37,0,0,1-.46.11Z"/><path class="b" d="M49.38,29a6.17,6.17,0,0,1-.58-2.88,7.57,7.57,0,0,1,.64-2.66,8.89,8.89,0,0,1,1.46-2.27,12.39,12.39,0,0,1,2-1.77A8.34,8.34,0,0,1,55,18.24a4.54,4.54,0,0,1,1.87-.33,1.77,1.77,0,0,1,1.27.6,2.06,2.06,0,0,1,.31,1.66,3.94,3.94,0,0,1-.94,2.62,14.54,14.54,0,0,1-2.08,2c-.76.59-1.46,1.13-2.09,1.6s-.94.92-.94,1.33a.59.59,0,0,0,.4.54,3.54,3.54,0,0,0,1,.29c.36.06.72.11,1.08.14s.61,0,.77.07A52.37,52.37,0,0,1,61,27.82a5.8,5.8,0,0,1,2.28,0c.31.14.25.36-.18.65a8.59,8.59,0,0,1-1.94.93,23.29,23.29,0,0,1-3,.86,18.55,18.55,0,0,1-3.43.45,10.56,10.56,0,0,1-3.14-.33A3.54,3.54,0,0,1,49.38,29Zm6.75-8.79a2.78,2.78,0,0,0-1.47.42,5.46,5.46,0,0,0-1.25,1.06A7,7,0,0,0,52.46,23a9,9,0,0,0-.57,1.4.24.24,0,0,0,.11,0h.12A2.27,2.27,0,0,0,53.35,24a7.28,7.28,0,0,0,1.31-1.14,7.93,7.93,0,0,0,1-1.4A2.64,2.64,0,0,0,56.13,20.17Z"/><path class="b" d="M62.22,27.22A6.38,6.38,0,0,1,62.64,25a20.61,20.61,0,0,1,1-2.21c.39-.73.78-1.46,1.18-2.18a10.92,10.92,0,0,0,.91-2.12,3.46,3.46,0,0,1-1.26.48,11,11,0,0,1-1.25.06l-.48,0-.52,0a3.55,3.55,0,0,1,.85-1.52,6.5,6.5,0,0,1,1.4-1.16,10.19,10.19,0,0,1,1.66-.81c.58-.22,1.1-.39,1.56-.52a22.19,22.19,0,0,0,1.89-3.64c.49-1.22,1-2.42,1.48-3.59a25,25,0,0,1,1.78-3.35,11.86,11.86,0,0,1,2.75-2.95l.2,1.47L71,14.19c.28-.08.63-.15,1-.23l1.25-.23,1.24-.21c.39-.07.73-.14,1-.22l.23,0h.31a1.77,1.77,0,0,1,.88.19,1.48,1.48,0,0,1,.58.85q-2.62.76-4.74,1.62a12.61,12.61,0,0,0-3.68,2.21,10.47,10.47,0,0,0-2.55,3.47A17.62,17.62,0,0,0,65.19,27a9.92,9.92,0,0,0,.07,1.27c0,.39.38.62,1,.7a4,4,0,0,0,1.65-.35c.52-.23,1-.48,1.51-.75s1-.52,1.48-.76a3.88,3.88,0,0,1,1.64-.34,2.3,2.3,0,0,1-.81,1.69,7.84,7.84,0,0,1-2,1.35,11.18,11.18,0,0,1-2.33.89,8,8,0,0,1-2,.31,3,3,0,0,1-1.39-.31,3,3,0,0,1-1-.83,3.74,3.74,0,0,1-.62-1.21A5,5,0,0,1,62.22,27.22Z"/><path class="b" d="M72.39,27.22A6.4,6.4,0,0,1,72.82,25a20.61,20.61,0,0,1,1-2.21c.39-.73.78-1.46,1.18-2.18a10.85,10.85,0,0,0,.9-2.12,3.42,3.42,0,0,1-1.25.48A11.24,11.24,0,0,1,73.4,19l-.49,0-.52,0a3.77,3.77,0,0,1,.85-1.52,6.32,6.32,0,0,1,1.41-1.16,10.19,10.19,0,0,1,1.66-.81c.58-.22,1.1-.39,1.56-.52a22.19,22.19,0,0,0,1.89-3.64c.49-1.22,1-2.42,1.48-3.59A23.82,23.82,0,0,1,83,4.38a11.91,11.91,0,0,1,2.76-2.95L86,2.9,81.15,14.19c.28-.08.62-.15,1-.23l1.25-.23,1.23-.21a10.28,10.28,0,0,0,1-.22l.23,0h.31a1.81,1.81,0,0,1,.89.19,1.53,1.53,0,0,1,.58.85q-2.62.76-4.74,1.62a12.48,12.48,0,0,0-3.68,2.21,10.33,10.33,0,0,0-2.55,3.47A17.9,17.9,0,0,0,75.36,27a9.82,9.82,0,0,0,.08,1.27c0,.39.37.62,1,.7a4,4,0,0,0,1.66-.35c.51-.23,1-.48,1.5-.75s1-.52,1.49-.76a3.88,3.88,0,0,1,1.64-.34,2.3,2.3,0,0,1-.81,1.69,7.84,7.84,0,0,1-1.95,1.35,11.63,11.63,0,0,1-2.33.89,8,8,0,0,1-2,.31,3.05,3.05,0,0,1-1.39-.31,3,3,0,0,1-1-.83,3.73,3.73,0,0,1-.61-1.21A4.64,4.64,0,0,1,72.39,27.22Z"/><path class="b" d="M83,29a6.17,6.17,0,0,1-.58-2.88A7.56,7.56,0,0,1,83,23.42a9.21,9.21,0,0,1,1.47-2.27,11.57,11.57,0,0,1,2-1.77,8.34,8.34,0,0,1,2.1-1.14,4.51,4.51,0,0,1,1.87-.33,1.77,1.77,0,0,1,1.27.6A2.06,2.06,0,0,1,92,20.17a4,4,0,0,1-1,2.62,14,14,0,0,1-2.08,2c-.76.59-1.45,1.13-2.08,1.6s-1,.92-1,1.33a.6.6,0,0,0,.41.54,3.46,3.46,0,0,0,.94.29c.36.06.72.11,1.08.14s.62,0,.77.07a52.45,52.45,0,0,1,5.44-.94,5.73,5.73,0,0,1,2.27,0c.31.14.25.36-.17.65a8.49,8.49,0,0,1-2,.93,22.68,22.68,0,0,1-3,.86,18.66,18.66,0,0,1-3.43.45,10.56,10.56,0,0,1-3.14-.33A3.51,3.51,0,0,1,83,29Zm6.74-8.79a2.77,2.77,0,0,0-1.46.42A5.73,5.73,0,0,0,87,21.65,6.93,6.93,0,0,0,86,23a8.19,8.19,0,0,0-.58,1.4.24.24,0,0,0,.12,0h.11A2.33,2.33,0,0,0,86.93,24a7.28,7.28,0,0,0,1.31-1.14,7.93,7.93,0,0,0,1-1.4A2.72,2.72,0,0,0,89.7,20.17Z"/><path class="b" d="M96,26.68a3.48,3.48,0,0,1,.22-1.27c.14-.36.5-.54,1.1-.54l.36,0a1.55,1.55,0,0,1,.41.06,4.64,4.64,0,0,0,.57,2.71,2.62,2.62,0,0,0,2.32.91,9.14,9.14,0,0,0,2.73-.42,8,8,0,0,0,2.45-1.26,6.51,6.51,0,0,0,1.78-2,5.51,5.51,0,0,0,.67-2.7,1.4,1.4,0,0,0-.64-1.31,6.13,6.13,0,0,0-1.4-.62,9.24,9.24,0,0,1-1.41-.52,1,1,0,0,1-.64-1A2.19,2.19,0,0,1,105.62,17a12.34,12.34,0,0,1,2.55-1.45,18.57,18.57,0,0,1,2.91-1,9.49,9.49,0,0,1,2.21-.37,2.13,2.13,0,0,1-.48,1.58,3.47,3.47,0,0,1-1.17.73c-.47.18-.93.36-1.41.52a2.36,2.36,0,0,0-1.18.95,13.21,13.21,0,0,1,1,.9,3.21,3.21,0,0,1,.63.87,3.11,3.11,0,0,1,.31,1,10.21,10.21,0,0,1,.08,1.33,7.68,7.68,0,0,1-.87,3.65A9.37,9.37,0,0,1,108,28.55a10,10,0,0,1-3.16,1.81,10.5,10.5,0,0,1-3.62.64,7.45,7.45,0,0,1-2-.25A4.68,4.68,0,0,1,97.59,30a3.92,3.92,0,0,1-1.14-1.35A4.13,4.13,0,0,1,96,26.68Z"/><path class="b" d="M115.76,30.46v-.33c0-.17,0-.34,0-.52s0-.35,0-.52v-.37a24.12,24.12,0,0,1,.25-3.41c.17-1.12.35-2.23.54-3.35s.38-2.24.54-3.36a22.53,22.53,0,0,0,.25-3.41v-1.6c0-.34,0-.67,0-1s0-.53,0-.65a1.22,1.22,0,0,0-.68-.54l-.87-.31a3.32,3.32,0,0,1-.75-.39.83.83,0,0,1-.33-.73.8.8,0,0,1,.2-.56,1.28,1.28,0,0,1,.48-.33,2.07,2.07,0,0,1,.62-.13c.21,0,.43,0,.63,0a3.32,3.32,0,0,1,2.78,1.19,4.9,4.9,0,0,1,.92,3A18.49,18.49,0,0,1,120,16.6q-.3,1.68-.69,3.33c-.26,1.11-.49,2.22-.69,3.34a18.41,18.41,0,0,0-.31,3.41V27c.1-.1.27-.27.52-.5l.77-.75.75-.77a5.37,5.37,0,0,0,.46-.53,42.88,42.88,0,0,0,3.82-5.33q1.69-2.8,3.12-5.38l2.66-4.8a23,23,0,0,1,2.47-3.68,6.23,6.23,0,0,1,2.54-1.95,3.35,3.35,0,0,1,2.89.41.76.76,0,0,1-.32.67,2.77,2.77,0,0,1-.76.33c-.28.07-.56.16-.84.25a1,1,0,0,0-.62.48q-3.66,6.56-7.88,12.93a124.61,124.61,0,0,1-9.08,12.09,2.3,2.3,0,0,1-.73.44,2.48,2.48,0,0,1-.77.1,2.51,2.51,0,0,1-.78-.1A2.3,2.3,0,0,1,115.76,30.46Z"/><path class="b" d="M129,29a6.3,6.3,0,0,1-.58-2.88,7.8,7.8,0,0,1,.64-2.66,8.67,8.67,0,0,1,1.47-2.27,11.91,11.91,0,0,1,1.94-1.77,8.69,8.69,0,0,1,2.1-1.14,4.54,4.54,0,0,1,1.87-.33,1.75,1.75,0,0,1,1.27.6,2,2,0,0,1,.31,1.66,3.94,3.94,0,0,1-.94,2.62,14.54,14.54,0,0,1-2.08,2l-2.08,1.6c-.63.48-.95.92-.95,1.33a.6.6,0,0,0,.41.54,3.46,3.46,0,0,0,.94.29c.36.06.72.11,1.08.14s.62,0,.77.07a52.45,52.45,0,0,1,5.44-.94,5.76,5.76,0,0,1,2.27,0c.31.14.25.36-.17.65a8.93,8.93,0,0,1-1.95.93,22.86,22.86,0,0,1-3.05.86,18.55,18.55,0,0,1-3.43.45,10.6,10.6,0,0,1-3.14-.33A3.57,3.57,0,0,1,129,29Zm6.75-8.79a2.81,2.81,0,0,0-1.47.42,5.46,5.46,0,0,0-1.25,1.06,6.53,6.53,0,0,0-.94,1.39,8.19,8.19,0,0,0-.58,1.4.24.24,0,0,0,.11,0h.12A2.27,2.27,0,0,0,133,24a7,7,0,0,0,1.31-1.14,7.93,7.93,0,0,0,1-1.4A2.64,2.64,0,0,0,135.77,20.17Z"/><path class="b" d="M150.57,28a4.83,4.83,0,0,1,.48-2.14A18.85,18.85,0,0,1,152.11,24c.39-.59.74-1.18,1.06-1.77a3.91,3.91,0,0,0,.49-1.89c0-.15,0-.34,0-.56a6,6,0,0,0-.08-.63,1.28,1.28,0,0,0-.23-.53.57.57,0,0,0-.45-.21l-.13,0c-.07,0-.1,0-.1.06-.36.49-.79,1-1.29,1.64s-1,1.2-1.6,1.79-1.12,1.16-1.66,1.7-1,1-1.46,1.35-.73.66-1.25,1.15l-1.58,1.45-1.39,1.25a3.21,3.21,0,0,1-.68.54L140,27.84a1.51,1.51,0,0,0,.68-.16,5.49,5.49,0,0,0,.63-.34,23.37,23.37,0,0,0,4.18-3.55q1.88-2,3.69-4.32c0-.07.18-.3.4-.67s.46-.8.71-1.27L151,16.1c.26-.48.45-.86.58-1.14a3.36,3.36,0,0,0,.29-.81,4.15,4.15,0,0,1,.12-.48.41.41,0,0,1,.21-.25,1.74,1.74,0,0,1,.65-.08l.37,0a1.63,1.63,0,0,1,.37.08c.33.69.63,1.31.88,1.85s.48,1,.66,1.52a8.45,8.45,0,0,1,.4,1.45,9,9,0,0,1,.14,1.62c-.34.84-.71,1.71-1.12,2.6s-.76,1.73-1,2.52a9.31,9.31,0,0,0-.52,2.16,1.85,1.85,0,0,0,.42,1.52,2.41,2.41,0,0,0,1.78.6,12.06,12.06,0,0,0,3.56-.65q.61.3.12.75a5.24,5.24,0,0,1-1.52.83,15.16,15.16,0,0,1-2.24.63,5.9,5.9,0,0,1-2,.14,2.6,2.6,0,0,1-1.22-.25,2,2,0,0,1-.77-.68,3,3,0,0,1-.42-1A4.58,4.58,0,0,1,150.57,28Z"/><path class="b" d="M156.85,27.22a6.4,6.4,0,0,1,.43-2.24,20.61,20.61,0,0,1,1-2.21c.39-.73.78-1.46,1.18-2.18a10.85,10.85,0,0,0,.9-2.12,3.42,3.42,0,0,1-1.25.48,11.12,11.12,0,0,1-1.25.06l-.48,0-.53,0a3.77,3.77,0,0,1,.85-1.52,6.32,6.32,0,0,1,1.41-1.16,10.19,10.19,0,0,1,1.66-.81c.58-.22,1.1-.39,1.56-.52a22.19,22.19,0,0,0,1.89-3.64c.49-1.22,1-2.42,1.48-3.59a22.88,22.88,0,0,1,1.78-3.35,11.68,11.68,0,0,1,2.75-2.95l.19,1.47-4.81,11.29c.28-.08.62-.15,1-.23l1.25-.23,1.23-.21a10.28,10.28,0,0,0,1-.22l.24,0h.3a1.81,1.81,0,0,1,.89.19,1.53,1.53,0,0,1,.58.85q-2.62.76-4.74,1.62a12.48,12.48,0,0,0-3.68,2.21,10.33,10.33,0,0,0-2.55,3.47A17.9,17.9,0,0,0,159.82,27a9.82,9.82,0,0,0,.08,1.27c0,.39.37.62,1,.7a4,4,0,0,0,1.66-.35q.78-.34,1.5-.75c.49-.27,1-.52,1.49-.76a3.88,3.88,0,0,1,1.64-.34,2.3,2.3,0,0,1-.81,1.69,7.84,7.84,0,0,1-2,1.35,11.63,11.63,0,0,1-2.33.89,8,8,0,0,1-2,.31,3,3,0,0,1-1.38-.31,2.91,2.91,0,0,1-1-.83,3.73,3.73,0,0,1-.61-1.21A5,5,0,0,1,156.85,27.22Z"/><path class="b" d="M167.42,29a6.17,6.17,0,0,1-.58-2.88,7.36,7.36,0,0,1,.64-2.66,8.89,8.89,0,0,1,1.46-2.27,11.57,11.57,0,0,1,1.95-1.77,8.34,8.34,0,0,1,2.1-1.14,4.51,4.51,0,0,1,1.87-.33,1.77,1.77,0,0,1,1.27.6,2.06,2.06,0,0,1,.31,1.66,4,4,0,0,1-.95,2.62,14,14,0,0,1-2.08,2c-.76.59-1.45,1.13-2.08,1.6s-.94.92-.94,1.33a.59.59,0,0,0,.4.54,3.46,3.46,0,0,0,.94.29c.36.06.72.11,1.08.14s.62,0,.77.07a52.45,52.45,0,0,1,5.44-.94,5.73,5.73,0,0,1,2.27,0c.31.14.26.36-.17.65a8.49,8.49,0,0,1-2,.93,22.68,22.68,0,0,1-3,.86,18.66,18.66,0,0,1-3.43.45,10.56,10.56,0,0,1-3.14-.33A3.51,3.51,0,0,1,167.42,29Zm6.74-8.79a2.77,2.77,0,0,0-1.46.42,5.46,5.46,0,0,0-1.25,1.06A6.58,6.58,0,0,0,170.5,23a8.19,8.19,0,0,0-.58,1.4.24.24,0,0,0,.12,0h.11a2.33,2.33,0,0,0,1.24-.46,7.28,7.28,0,0,0,1.31-1.14,7.93,7.93,0,0,0,1-1.4A2.72,2.72,0,0,0,174.16,20.17Z"/><path class="b" d="M180.48,26.68a3.48,3.48,0,0,1,.22-1.27c.14-.36.5-.54,1.1-.54l.36,0a1.55,1.55,0,0,1,.41.06,4.56,4.56,0,0,0,.58,2.71,2.59,2.59,0,0,0,2.31.91,9.14,9.14,0,0,0,2.73-.42,8,8,0,0,0,2.45-1.26,6.38,6.38,0,0,0,1.78-2,5.41,5.41,0,0,0,.67-2.7,1.4,1.4,0,0,0-.64-1.31,6.13,6.13,0,0,0-1.4-.62,9.24,9.24,0,0,1-1.41-.52,1,1,0,0,1-.64-1A2.19,2.19,0,0,1,190.08,17a12.34,12.34,0,0,1,2.55-1.45,18.57,18.57,0,0,1,2.91-1,9.49,9.49,0,0,1,2.21-.37,2.13,2.13,0,0,1-.48,1.58,3.47,3.47,0,0,1-1.17.73c-.47.18-.93.36-1.41.52a2.36,2.36,0,0,0-1.18.95,11.58,11.58,0,0,1,1,.9,3.21,3.21,0,0,1,.63.87,3.11,3.11,0,0,1,.31,1,10.21,10.21,0,0,1,.08,1.33,7.68,7.68,0,0,1-.87,3.65,9.49,9.49,0,0,1-2.25,2.81,10.14,10.14,0,0,1-3.17,1.81,10.5,10.5,0,0,1-3.62.64,7.45,7.45,0,0,1-2-.25,4.68,4.68,0,0,1-1.65-.79,3.92,3.92,0,0,1-1.14-1.35A4.13,4.13,0,0,1,180.48,26.68Z"/></g><path class="b" d="M224.51,20H211.28c-.35,0-.36,0-.31.36a11.67,11.67,0,0,0,.94,3.13,13.92,13.92,0,0,0,6.93,7.05,4.7,4.7,0,0,0,2.06.46c2.53,0,5.07,0,7.61,0a3.05,3.05,0,0,0,.9-.12,8.73,8.73,0,0,0,1.09-.47,13.92,13.92,0,0,0,6.43-6.56,13.4,13.4,0,0,0,1.1-3.51c0-.25,0-.32-.29-.32Z"/><path class="b" d="M216.3,7.82l-.25.66a10.53,10.53,0,0,0-.41,1.06A1.42,1.42,0,0,0,216,11a3,3,0,0,1,.92,2.33,3.42,3.42,0,0,1-1,2.31,1.16,1.16,0,0,1-1.63,0,1.14,1.14,0,0,1-.09-1.62l.13-.15a.89.89,0,0,0-.06-1.36,3.5,3.5,0,0,1-1-2.21,4.85,4.85,0,0,1,1-3.31,1.11,1.11,0,0,1,1.31-.34A1.31,1.31,0,0,1,216.3,7.82Z"/><path class="b" d="M235.6,13.2a3.51,3.51,0,0,1-1,2.42,1.17,1.17,0,1,1-1.75-1.55c.29-.34.53-.69.3-1.15a1.67,1.67,0,0,0-.32-.42,3.58,3.58,0,0,1-.9-3.26,5.19,5.19,0,0,1,.79-2,1.16,1.16,0,0,1,1.6-.4,1.19,1.19,0,0,1,.37,1.65,5.5,5.5,0,0,0-.46,1.16,1.38,1.38,0,0,0,.39,1.38A3.14,3.14,0,0,1,235.6,13.2Z"/><path class="b" d="M225.56,8c-.09.2-.27.55-.4.92a5.74,5.74,0,0,0-.25,1A1.23,1.23,0,0,0,225.3,11a3.13,3.13,0,0,1,1,2.45,3.37,3.37,0,0,1-1.11,2.32,1.12,1.12,0,0,1-1.5,0,1.13,1.13,0,0,1-.23-1.5,3.55,3.55,0,0,1,.23-.31.94.94,0,0,0,0-1.33,7.2,7.2,0,0,1-.76-1,3.42,3.42,0,0,1-.29-2.09,4.92,4.92,0,0,1,.88-2.33,1.14,1.14,0,0,1,1.34-.42A1.2,1.2,0,0,1,225.56,8Z"/></svg>